<?xml version="1.0" encoding="UTF-8"?>
<svg width="14px" height="14px" viewBox="0 0 14 14" version="1.1" xmlns="http://www.w3.org/2000/svg" xmlns:xlink="http://www.w3.org/1999/xlink">
    <g stroke="none" stroke-width="1" fill-rule="evenodd">
        <path d="M1.5,0 L12.5,0 C13.0522847,-1.01453063e-16 13.5,0.44771525 13.5,1 L13.5,13 C13.5,13.5522847 13.0522847,14 12.5,14 L1.5,14 C0.94771525,14 0.5,13.5522847 0.5,13 L0.5,1 C0.5,0.44771525 0.94771525,1.01453063e-16 1.5,0 Z M2.5,1.5 C2.22385763,1.5 2,1.72385763 2,2 L2,12 C2,12.2761424 2.22385763,12.5 2.5,12.5 L11.5,12.5 C11.7761424,12.5 12,12.2761424 12,12 L12,2 C12,1.72385763 11.7761424,1.5 11.5,1.5 L2.5,1.5 Z M6.5,3 L10.5,3 L10.5,4.5 L6.5,4.5 L6.5,3 Z M6.5,6.25 L10.5,6.25 L10.5,7.75 L6.5,7.75 L6.5,6.25 Z M6.5,9.5 L10.5,9.5 L10.5,11 L6.5,11 L6.5,9.5 Z M3.5,3 L5,3 L5,4.5 L3.5,4.5 L3.5,3 Z M3.5,6.25 L5,6.25 L5,7.75 L3.5,7.75 L3.5,6.25 Z M3.5,9.5 L5,9.5 L5,11 L3.5,11 L3.5,9.5 Z"></path>
    </g>
</svg>