<?xml version="1.0" encoding="UTF-8"?>
<svg width="12px" height="12px" viewBox="0 0 12 12" version="1.1" xmlns="http://www.w3.org/2000/svg" xmlns:xlink="http://www.w3.org/1999/xlink">
    <g stroke="none" stroke-width="1" fill-rule="evenodd">
        <path d="M9.48228457,8.35748344 L12,10.8751989 L10.8751989,12 L8.35748344,9.48228457 C6.30336656,10.994793 3.39647641,10.8214065 1.537875,8.962125 C-0.512625,6.912375 -0.512625,3.587625 1.537875,1.537875 C3.587625,-0.512625 6.912375,-0.512625 8.962125,1.537875 C10.8214065,3.39647641 10.994793,6.30336656 9.48228457,8.35748344 Z M2.5968335,2.5968335 C1.13438883,4.06002851 1.13438883,6.44015908 2.5968335,7.90260374 C4.06002851,9.36579875 6.44015908,9.36579875 7.90260374,7.90260374 C9.36579875,6.44015908 9.36579875,4.06002851 7.90260374,2.5968335 C6.44015908,1.13438883 4.06002851,1.13438883 2.5968335,2.5968335 Z"></path>
    </g>
</svg>