<?xml version="1.0" encoding="UTF-8"?>
<svg width="18px" height="18px" viewBox="0 0 18 18" version="1.1" xmlns="http://www.w3.org/2000/svg" xmlns:xlink="http://www.w3.org/1999/xlink">
    <g id="Page-1" stroke="none" stroke-width="1" fill-rule="evenodd">
        <g id="首页框架布局示例" transform="translate(-40.000000, -331.000000)">
            <g id="一级菜单-copy-4" transform="translate(0.000000, 320.000000)">
                <g id="Menu" transform="translate(40.000000, 11.000000)">
                    <g id="icon">
                        <path d="M9.1880922,3.5097304 C9.14718997,3.50705829 9.12856274,3.38531353 9.0880922,3.41414411 C9.08817854,3.44597493 9.08826487,3.47785269 9.08830804,3.5097304 L9.1880922,3.5097304 Z M8.99991213,6.6871966 C7.72262895,6.6871966 6.68725518,7.72260943 6.68725518,8.99983405 C6.68725518,10.2770587 7.72268753,11.3125496 8.99991213,11.3125496 C10.2771172,11.3125496 11.3125496,10.2770586 11.3125496,8.99983405 C11.3125496,7.72260944 10.2771758,6.68719662 8.99991213,6.6871966 Z M16.3991296,8.99850627 C16.3991296,8.02442505 17.0615735,7.19112733 17.9991604,6.85037659 C17.7693181,5.88420347 17.3880311,4.97664783 16.8814644,4.15442142 C15.9776578,4.57601039 14.9205319,4.45504593 14.2319229,3.76651505 C13.5435677,3.0780818 13.4225251,2.02130737 13.8437041,1.11767648 C13.0214581,0.611265945 12.1140782,0.229705556 11.1478075,2.72577107e-16 C10.806842,0.937196328 9.97375903,1.59928882 8.99993166,1.59928882 C8.02620191,1.59928882 7.1930604,0.937196328 6.85209487,0 C5.88582413,0.229705556 4.97846374,0.611265926 4.15617878,1.11767648 C4.57733817,2.02130737 4.45623703,3.07814038 3.76794046,3.76651505 C3.07946815,4.45496783 2.02243989,4.57597134 1.11878945,4.15459716 C0.612203182,4.97682356 0.230447532,5.8841644 0.000546732622,6.85033754 C0.938211688,7.19114686 1.60073376,8.02442505 1.60073374,8.99852579 C1.60073374,9.9728218 0.937977355,10.8062367 0,11.1469093 C0.226449523,12.0994099 0.603547879,13.0096389 1.11705162,13.8432159 C2.02109256,13.4209435 3.07901903,13.5417323 3.76794046,14.2306146 C4.45682282,14.9194775 4.57755296,15.9773649 4.155222,16.8814449 C4.97750698,17.387953 5.8849064,17.7696696 6.85115762,17.9995119 C7.19153736,17.0610268 8.02530371,16.3977237 8.99995118,16.3977237 C9.97454008,16.3977237 10.8082478,17.0609487 11.1486276,17.9993752 C12.1011065,17.7727493 13.0112882,17.3954866 13.8447975,16.8818354 C13.4222908,15.9776382 13.5429819,14.919536 14.2319229,14.2306341 C14.9207857,13.5417908 15.9784974,13.4210021 16.8824797,13.8430988 C17.3888317,13.0207162 17.7703921,12.1132972 18,11.1469874 C17.0618859,10.8063148 16.3991296,9.97286083 16.3991296,8.99850627 Z M8.99991213,13.6252261 C6.44542388,13.6252261 4.37457868,11.5544394 4.37457868,8.99991215 C4.37457868,6.44538486 6.44542388,4.3745787 8.99991213,4.3745787 C11.5543809,4.3745787 13.6252261,6.44538484 13.6252261,8.99991215 C13.6252261,11.5544395 11.5543223,13.6252261 8.99991213,13.6252261 Z" id="Shape"></path>
                    </g>
                </g>
            </g>
        </g>
    </g>
</svg>