<?xml version="1.0" encoding="UTF-8"?>
<svg width="14px" height="14px" viewBox="0 0 14 14" version="1.1" xmlns="http://www.w3.org/2000/svg" xmlns:xlink="http://www.w3.org/1999/xlink">
    <g id="icon-编辑" stroke="none" stroke-width="1" fill-rule="evenodd">
        <path d="M4.42406733,7.68290996 C4.53360803,7.68265649 4.63866567,7.72612604 4.71567134,7.80356653 L6.20529379,9.29285418 C6.36397362,9.45407295 6.36429239,9.71168454 6.20601202,9.87329084 C6.17020279,9.90980157 6.12748721,9.93891721 6.08032064,9.95896414 L3.80135631,10.7407331 C3.75187814,10.7580579 3.70007011,10.7679244 3.64765371,10.7700048 C3.52148865,10.7695901 3.40246032,10.7117733 3.3246052,10.6130874 C3.24675008,10.5144014 3.21864041,10.385712 3.24831423,10.2638183 L4.02903727,7.98133865 C4.04890298,7.91604984 4.08326625,7.85602951 4.12959038,7.80570837 C4.20730568,7.72731667 4.31334695,7.68309691 4.42406733,7.68290996 Z M13.7589868,1.32666454 C14.0760244,1.65400287 14.0757071,2.17200672 13.7582685,2.49896096 L13.1111375,3.1115251 L10.880295,0.889016733 L11.5073154,0.255748207 C11.6624545,0.0936828685 11.8714613,0.0130071713 12.0941146,0.0130071713 C12.3148265,0.00993985423 12.5269741,0.0978064387 12.6801956,0.255748207 L13.7589868,1.32666454 Z M7.69994389,8.47895777 L6.91778437,9.28000319 L4.70058838,7.06463426 C4.71423487,7.05749482 4.720699,7.04392988 4.72788136,7.03750438 L5.49567615,6.27001434 L10.0852072,1.6843506 L12.2959391,3.88615458 L12.1882036,3.99396016 C12.1610977,4.04150268 12.1216615,4.08094973 12.074004,4.10819124 L7.69994389,8.47895777 Z M6,2 L6,3.5 L2,3.5 C1.72385763,3.5 1.5,3.72385763 1.5,4 L1.5,12 C1.5,12.2761424 1.72385763,12.5 2,12.5 L10,12.5 C10.2761424,12.5 10.5,12.2761424 10.5,12 L10.5,8 L12,8 L12,13 C12,13.5522847 11.5522847,14 11,14 L1,14 C0.44771525,14 6.76353751e-17,13.5522847 0,13 L0,3 C-6.76353751e-17,2.44771525 0.44771525,2 1,2 L6,2 Z" id="Combined-Shape" ></path>
    </g>
</svg>