<?xml version="1.0" encoding="UTF-8"?>
<svg width="14px" height="14px" viewBox="0 0 14 14" version="1.1" xmlns="http://www.w3.org/2000/svg" xmlns:xlink="http://www.w3.org/1999/xlink">
    <g id="icon-删除" stroke="none" stroke-width="1" fill-rule="evenodd">
        <g id="Icon" >
            <g id="Group" transform="translate(0.656250, 0.000000)">
                <path d="M10.71875,3.9375 C10.3564453,3.9375 10.0625,4.23144531 10.0625,4.59375 L10.0625,12.6875 L9.1875,12.6875 L9.1875,4.59375 C9.1875,4.23144531 8.89355469,3.9375 8.53125,3.9375 C8.16894531,3.9375 7.875,4.23144531 7.875,4.59375 L7.875,12.6875 L7,12.6875 L7,4.59375 C7,4.23144531 6.70605469,3.9375 6.34375,3.9375 C5.98144531,3.9375 5.6875,4.23144531 5.6875,4.59375 L5.6875,12.6875 L4.8125,12.6875 L4.8125,4.59375 C4.8125,4.23144531 4.51855469,3.9375 4.15625,3.9375 C3.79394531,3.9375 3.5,4.23144531 3.5,4.59375 L3.5,12.6875 L2.625,12.6875 L2.625,4.59375 C2.625,4.23144531 2.33105469,3.9375 1.96875,3.9375 C1.60644531,3.9375 1.3125,4.23144531 1.3125,4.59375 L1.3125,13.34375 C1.3125,13.7060547 1.60644531,14 1.96875,14 L10.71875,14 C11.0810547,14 11.375,13.7060547 11.375,13.34375 L11.375,4.59375 C11.375,4.23144531 11.0810547,3.9375 10.71875,3.9375 Z M12.03125,1.96875 L8.75,1.96875 L8.75,0.65625 C8.75,0.293945312 8.45605469,0 8.09375,0 L4.59375,0 C4.23144531,0 3.9375,0.293945312 3.9375,0.65625 L3.9375,1.96875 L0.65625,1.96875 C0.293945312,1.96875 0,2.26269531 0,2.625 C0,2.98730469 0.293945312,3.28125 0.65625,3.28125 L12.03125,3.28125 C12.3935547,3.28125 12.6875,2.98730469 12.6875,2.625 C12.6875,2.26269531 12.3935547,1.96875 12.03125,1.96875 Z M5.25,1.3125 L7.4375,1.3125 L7.4375,1.96875 L5.25,1.96875 L5.25,1.3125 Z" id="Shape"></path>
            </g>
        </g>
    </g>
</svg>